999
dxfrw 0.6.3
  0
SECTION
  2
HEADER
  9
$ACADVER
  1
AC1021
  9
$DWGCODEPAGE
  3
ANSI_1252
  9
$INSBASE
 10
0
 20
0
 30
0
  9
$EXTMIN
 10
110.61
 20
-212.82
 30
0
  9
$EXTMAX
 10
363.7099999999999
 20
225.18
 30
0
  9
$LIMMIN
 10
0
 20
0
  9
$LIMMAX
 10
420
 20
297
  9
$ORTHOMODE
 70
    0
  9
$REGENMODE
 70
    1
  9
$FILLMODE
 70
    1
  9
$QTEXTMODE
 70
    0
  9
$MIRRTEXT
 70
    0
  9
$LTSCALE
 40
1
  9
$ATTMODE
 70
    0
  9
$TEXTSIZE
 40
2.5
  9
$TRACEWID
 40
15.68
  9
$TEXTSTYLE
  7
STANDARD
  9
$CLAYER
  8
ETCH
  9
$CELTYPE
  6
BYLAYER
  9
$CECOLOR
 62
  256
  9
$CELTSCALE
 40
1
  9
$DISPSILH
 70
    0
  9
$DIMSCALE
 40
2.5
  9
$DIMASZ
 40
2.5
  9
$DIMEXO
 40
0.625
  9
$DIMDLI
 40
3.75
  9
$DIMRND
 40
0
  9
$DIMDLE
 40
0
  9
$DIMEXE
 40
1.25
  9
$DIMTP
 40
0
  9
$DIMTM
 40
0
  9
$DIMTXT
 40
2.5
  9
$DIMCEN
 40
2.5
  9
$DIMTSZ
 40
0
  9
$DIMTOL
 70
    0
  9
$DIMLIM
 70
    0
  9
$DIMTIH
 70
    0
  9
$DIMTOH
 70
    0
  9
$DIMSE1
 70
    0
  9
$DIMSE2
 70
    0
  9
$DIMTAD
 70
    1
  9
$DIMZIN
 70
    8
  9
$DIMBLK
  1

  9
$DIMASO
 70
    1
  9
$DIMSHO
 70
    1
  9
$DIMPOST
  1

  9
$DIMAPOST
  1

  9
$DIMALT
 70
    0
  9
$DIMALTD
 70
    3
  9
$DIMALTF
 40
0.03937
  9
$DIMLFAC
 40
1
  9
$DIMTOFL
 70
    1
  9
$DIMTVP
 40
0
  9
$DIMTIX
 70
    0
  9
$DIMSOXD
 70
    0
  9
$DIMSAH
 70
    0
  9
$DIMBLK1
  1

  9
$DIMBLK2
  1

  9
$DIMSTYLE
  2
STANDARD
  9
$DIMCLRD
 70
    0
  9
$DIMCLRE
 70
    0
  9
$DIMCLRT
 70
    0
  9
$DIMTFAC
 40
1
  9
$DIMGAP
 40
0.625
  9
$DIMJUST
 70
    0
  9
$DIMSD1
 70
    0
  9
$DIMSD2
 70
    0
  9
$DIMTOLJ
 70
    0
  9
$DIMTZIN
 70
    8
  9
$DIMALTZ
 70
    0
  9
$DIMALTTZ
 70
    0
  9
$DIMUPT
 70
    0
  9
$DIMDEC
 70
    2
  9
$DIMTDEC
 70
    2
  9
$DIMALTU
 70
    2
  9
$DIMALTTD
 70
    3
  9
$DIMTXSTY
  7
STANDARD
  9
$DIMAUNIT
 70
    0
  9
$DIMADEC
 70
    0
  9
$DIMALTRND
 40
0
  9
$DIMAZIN
 70
    0
  9
$DIMDSEP
 70
   44
  9
$DIMATFIT
 70
    3
  9
$DIMFRAC
 70
    0
  9
$DIMLDRBLK
  1
STANDARD
  9
$DIMLUNIT
 70
    2
  9
$DIMLWD
 70
   -2
  9
$DIMLWE
 70
   -2
  9
$DIMTMOVE
 70
    0
  9
$DIMFXL
 40
1
  9
$DIMFXLON
 70
    0
  9
$DIMJOGANG
 40
0.7854
  9
$DIMTFILL
 70
    0
  9
$DIMTFILLCLR
 70
    0
  9
$DIMARCSYM
 70
    0
  9
$DIMLTYPE
  6

  9
$DIMLTEX1
  6

  9
$DIMLTEX2
  6

  9
$LUNITS
 70
    2
  9
$LUPREC
 70
    4
  9
$SKETCHINC
 40
1
  9
$FILLETRAD
 40
0
  9
$AUNITS
 70
    0
  9
$AUPREC
 70
    2
  9
$MENU
  1
.
  9
$ELEVATION
 40
0
  9
$PELEVATION
 40
0
  9
$THICKNESS
 40
0
  9
$LIMCHECK
 70
    0
  9
$CHAMFERA
 40
0
  9
$CHAMFERB
 40
0
  9
$CHAMFERC
 40
0
  9
$CHAMFERD
 40
0
  9
$SKPOLY
 70
    0
  9
$USRTIMER
 70
    1
  9
$ANGBASE
 50
0
  9
$ANGDIR
 70
    0
  9
$PDMODE
 70
   34
  9
$PDSIZE
 40
0
  9
$PLINEWID
 40
0
  9
$SPLFRAME
 70
    0
  9
$SPLINETYPE
 70
    2
  9
$SPLINESEGS
 70
    8
  9
$HANDSEED
  5
20000
  9
$SURFTAB1
 70
    6
  9
$SURFTAB2
 70
    6
  9
$SURFTYPE
 70
    6
  9
$SURFU
 70
    6
  9
$SURFV
 70
    6
  9
$UCSBASE
  2

  9
$UCSNAME
  2

  9
$UCSORG
 10
0
 20
0
 30
0
  9
$UCSXDIR
 10
1
 20
0
 30
0
  9
$UCSYDIR
 10
0
 20
1
 30
0
  9
$UCSORTHOREF
  2

  9
$UCSORTHOVIEW
 70
    0
  9
$UCSORGTOP
 10
0
 20
0
 30
0
  9
$UCSORGBOTTOM
 10
0
 20
0
 30
0
  9
$UCSORGLEFT
 10
0
 20
0
 30
0
  9
$UCSORGRIGHT
 10
0
 20
0
 30
0
  9
$UCSORGFRONT
 10
0
 20
0
 30
0
  9
$UCSORGBACK
 10
0
 20
0
 30
0
  9
$PUCSBASE
  2

  9
$PUCSNAME
  2

  9
$PUCSORG
 10
0
 20
0
 30
0
  9
$PUCSXDIR
 10
1
 20
0
 30
0
  9
$PUCSYDIR
 10
0
 20
1
 30
0
  9
$PUCSORTHOREF
  2

  9
$PUCSORTHOVIEW
 70
    0
  9
$PUCSORGTOP
 10
0
 20
0
 30
0
  9
$PUCSORGBOTTOM
 10
0
 20
0
 30
0
  9
$PUCSORGLEFT
 10
0
 20
0
 30
0
  9
$PUCSORGRIGHT
 10
0
 20
0
 30
0
  9
$PUCSORGFRONT
 10
0
 20
0
 30
0
  9
$PUCSORGBACK
 10
0
 20
0
 30
0
  9
$USERI1
 70
    0
  9
$USERI2
 70
    0
  9
$USERI3
 70
    0
  9
$USERI4
 70
    0
  9
$USERI5
 70
    0
  9
$USERR1
 40
0
  9
$USERR2
 40
0
  9
$USERR3
 40
0
  9
$USERR4
 40
0
  9
$USERR5
 40
0
  9
$WORLDVIEW
 70
    1
  9
$SHADEDGE
 70
    3
  9
$SHADEDIF
 70
   70
  9
$TILEMODE
 70
    1
  9
$MAXACTVP
 70
   64
  9
$PINSBASE
 10
0
 20
0
 30
0
  9
$PLIMCHECK
 70
    0
  9
$PEXTMIN
 10
0
 20
0
 30
0
  9
$PEXTMAX
 10
0
 20
0
 30
0
  9
$GRIDMODE
 70
    1
  9
$SNAPSTYLE
 70
    0
  9
$PLIMMIN
 10
0
 20
0
  9
$PLIMMAX
 10
210
 20
297
  9
$UNITMODE
 70
    0
  9
$VISRETAIN
 70
    1
  9
$PLINEGEN
 70
    0
  9
$PSLTSCALE
 70
    1
  9
$TREEDEPTH
 70
 3020
  9
$CMLSTYLE
  2
Standard
  9
$CMLJUST
 70
    0
  9
$CMLSCALE
 40
20
  9
$PROXYGRAPHICS
 70
    1
  9
$MEASUREMENT
 70
    1
  9
$CELWEIGHT
370
   -1
  9
$ENDCAPS
280
    0
  9
$JOINSTYLE
280
    0
  9
$LWDISPLAY
290
    0
  9
$INSUNITS
 70
    4
  9
$HYPERLINKBASE
  1

  9
$STYLESHEET
  1

  9
$XEDIT
290
    1
  9
$CEPSNTYPE
380
    0
  9
$PSTYLEMODE
290
    1
  9
$EXTNAMES
290
    1
  9
$PSVPSCALE
 40
1
  9
$OLESTARTUP
290
    0
  9
$SORTENTS
280
  127
  9
$INDEXCTL
280
    0
  9
$HIDETEXT
280
    1
  9
$XCLIPFRAME
290
    0
  9
$HALOGAP
280
    0
  9
$OBSCOLOR
 70
  257
  9
$OBSLTYPE
280
    0
  9
$INTERSECTIONDISPLAY
280
    0
  9
$INTERSECTIONCOLOR
 70
  257
  9
$DIMASSOC
280
    1
  9
$PROJECTNAME
  1

  9
$CAMERADISPLAY
290
    0
  9
$LENSLENGTH
 40
50
  9
$CAMERAHEIGHT
 40
0
  9
$STEPSPERSEC
 40
2
  9
$STEPSIZE
 40
50
  9
$3DDWFPREC
 40
2
  9
$PSOLWIDTH
 40
5
  9
$PSOLHEIGHT
 40
80
  9
$LOFTANG1
 40
1.570796326794897
  9
$LOFTANG2
 40
1.570796326794897
  9
$LOFTMAG1
 40
0
  9
$LOFTMAG2
 40
0
  9
$LOFTPARAM
 70
    7
  9
$LOFTNORMALS
280
    1
  9
$LATITUDE
 40
1
  9
$LONGITUDE
 40
1
  9
$NORTHDIRECTION
 40
0
  9
$TIMEZONE
 70
-8000
  9
$LIGHTGLYPHDISPLAY
280
    1
  9
$TILEMODELIGHTSYNCH
280
    1
  9
$SOLIDHIST
280
    1
  9
$SHOWHIST
280
    1
  9
$DWFFRAME
280
    2
  9
$DGNFRAME
280
    0
  9
$REALWORLDSCALE
290
    1
  9
$INTERFERECOLOR
 62
    1
  9
$CSHADOW
280
    0
  9
$SHADOWPLANELOCATION
 40
0
  0
ENDSEC
  0
SECTION
  2
CLASSES
  0
ENDSEC
  0
SECTION
  2
TABLES
  0
TABLE
  2
VPORT
  5
8
330
0
100
AcDbSymbolTable
 70
    1
  0
VPORT
  5
31
330
2
100
AcDbSymbolTableRecord
100
AcDbViewportTableRecord
  2
*ACTIVE
 70
    0
 10
0
 20
0
 11
1
 21
1
 12
389.7492191461826
 22
156.1873254585809
 13
0
 23
0
 14
10
 24
10
 15
10
 25
10
 16
0
 26
0
 36
1
 17
0
 27
0
 37
0
 40
663.8680426489959
 41
1.722703639514731
 42
50
 43
0
 44
0
 50
0
 51
0
 71
    0
 72
  100
 73
    1
 74
    3
 75
    0
 76
    1
 77
    0
 78
    0
281
    0
 65
    1
110
0
120
0
130
0
111
1
121
0
131
0
112
0
122
1
132
0
 79
    0
146
0
348
10020
 60
    7
 61
    5
292
1
282
    1
141
0
142
0
 63
  250
421
3358443
  0
ENDTAB
  0
TABLE
  2
LTYPE
  5
5
330
0
100
AcDbSymbolTable
 70
    4
  0
LTYPE
  5
14
330
5
100
AcDbSymbolTableRecord
100
AcDbLinetypeTableRecord
  2
ByBlock
 70
    0
  3

 72
   65
 73
    0
 40
0
  0
LTYPE
  5
15
330
5
100
AcDbSymbolTableRecord
100
AcDbLinetypeTableRecord
  2
ByLayer
 70
    0
  3

 72
   65
 73
    0
 40
0
  0
LTYPE
  5
16
330
5
100
AcDbSymbolTableRecord
100
AcDbLinetypeTableRecord
  2
Continuous
 70
    0
  3
Solid line
 72
   65
 73
    0
 40
0
  0
LTYPE
  5
32
330
5
100
AcDbSymbolTableRecord
100
AcDbLinetypeTableRecord
  2
DOT
 70
    0
  3
Dot . . . . . . . . . . . . . . . . . . . . . .
 72
   65
 73
    2
 40
6.35
 49
0
 74
    0
 49
-6.35
 74
    0
  0
LTYPE
  5
33
330
5
100
AcDbSymbolTableRecord
100
AcDbLinetypeTableRecord
  2
DOTTINY
 70
    0
  3
Dot (.15x) .....................................
 72
   65
 73
    2
 40
0.9525
 49
0
 74
    0
 49
-0.9525
 74
    0
  0
LTYPE
  5
34
330
5
100
AcDbSymbolTableRecord
100
AcDbLinetypeTableRecord
  2
DOT2
 70
    0
  3
Dot (.5x) .....................................
 72
   65
 73
    2
 40
3.175
 49
0
 74
    0
 49
-3.175
 74
    0
  0
LTYPE
  5
35
330
5
100
AcDbSymbolTableRecord
100
AcDbLinetypeTableRecord
  2
DOTX2
 70
    0
  3
Dot (2x) .  .  .  .  .  .  .  .  .  .  .  .  .
 72
   65
 73
    2
 40
12.7
 49
0
 74
    0
 49
-12.7
 74
    0
  0
LTYPE
  5
36
330
5
100
AcDbSymbolTableRecord
100
AcDbLinetypeTableRecord
  2
DASHED
 70
    0
  3
Dashed _ _ _ _ _ _ _ _ _ _ _ _ _ _ _ _ _
 72
   65
 73
    2
 40
19.05
 49
12.7
 74
    0
 49
-6.35
 74
    0
  0
LTYPE
  5
37
330
5
100
AcDbSymbolTableRecord
100
AcDbLinetypeTableRecord
  2
DASHEDTINY
 70
    0
  3
Dashed (.15x) _ _ _ _ _ _ _ _ _ _ _ _ _ _ _ _ _
 72
   65
 73
    2
 40
2.8575
 49
1.905
 74
    0
 49
-0.9525
 74
    0
  0
LTYPE
  5
38
330
5
100
AcDbSymbolTableRecord
100
AcDbLinetypeTableRecord
  2
DASHED2
 70
    0
  3
Dashed (.5x) _ _ _ _ _ _ _ _ _ _ _ _ _ _ _ _ _
 72
   65
 73
    2
 40
9.524999999999999
 49
6.35
 74
    0
 49
-3.175
 74
    0
  0
LTYPE
  5
39
330
5
100
AcDbSymbolTableRecord
100
AcDbLinetypeTableRecord
  2
DASHEDX2
 70
    0
  3
Dashed (2x) ____  ____  ____  ____  ____  ___
 72
   65
 73
    2
 40
38.09999999999999
 49
25.4
 74
    0
 49
-12.7
 74
    0
  0
LTYPE
  5
3A
330
5
100
AcDbSymbolTableRecord
100
AcDbLinetypeTableRecord
  2
DASHDOT
 70
    0
  3
Dash dot __ . __ . __ . __ . __ . __ . __ . __
 72
   65
 73
    4
 40
25.4
 49
12.7
 74
    0
 49
-6.35
 74
    0
 49
0
 74
    0
 49
-6.35
 74
    0
  0
LTYPE
  5
3B
330
5
100
AcDbSymbolTableRecord
100
AcDbLinetypeTableRecord
  2
DASHDOTTINY
 70
    0
  3
Dash dot (.15x) _._._._._._._._._._._._._._._.
 72
   65
 73
    4
 40
3.81
 49
1.905
 74
    0
 49
-0.9525
 74
    0
 49
0
 74
    0
 49
-0.9525
 74
    0
  0
LTYPE
  5
3C
330
5
100
AcDbSymbolTableRecord
100
AcDbLinetypeTableRecord
  2
DASHDOT2
 70
    0
  3
Dash dot (.5x) _._._._._._._._._._._._._._._.
 72
   65
 73
    4
 40
12.7
 49
6.35
 74
    0
 49
-3.175
 74
    0
 49
0
 74
    0
 49
-3.175
 74
    0
  0
LTYPE
  5
3D
330
5
100
AcDbSymbolTableRecord
100
AcDbLinetypeTableRecord
  2
DASHDOTX2
 70
    0
  3
Dash dot (2x) ____  .  ____  .  ____  .  ___
 72
   65
 73
    4
 40
50.8
 49
25.4
 74
    0
 49
-12.7
 74
    0
 49
0
 74
    0
 49
-12.7
 74
    0
  0
LTYPE
  5
3E
330
5
100
AcDbSymbolTableRecord
100
AcDbLinetypeTableRecord
  2
DIVIDE
 70
    0
  3
Divide ____ . . ____ . . ____ . . ____ . . ____
 72
   65
 73
    6
 40
31.75
 49
12.7
 74
    0
 49
-6.35
 74
    0
 49
0
 74
    0
 49
-6.35
 74
    0
 49
0
 74
    0
 49
-6.35
 74
    0
  0
LTYPE
  5
3F
330
5
100
AcDbSymbolTableRecord
100
AcDbLinetypeTableRecord
  2
DIVIDETINY
 70
    0
  3
Divide (.15x) __..__..__..__..__..__..__..__.._
 72
   65
 73
    6
 40
4.7625
 49
1.905
 74
    0
 49
-0.9525
 74
    0
 49
0
 74
    0
 49
-0.9525
 74
    0
 49
0
 74
    0
 49
-0.9525
 74
    0
  0
LTYPE
  5
40
330
5
100
AcDbSymbolTableRecord
100
AcDbLinetypeTableRecord
  2
DIVIDE2
 70
    0
  3
Divide (.5x) __..__..__..__..__..__..__..__.._
 72
   65
 73
    6
 40
15.875
 49
6.35
 74
    0
 49
-3.175
 74
    0
 49
0
 74
    0
 49
-3.175
 74
    0
 49
0
 74
    0
 49
-3.175
 74
    0
  0
LTYPE
  5
41
330
5
100
AcDbSymbolTableRecord
100
AcDbLinetypeTableRecord
  2
DIVIDEX2
 70
    0
  3
Divide (2x) ________  .  .  ________  .  .  _
 72
   65
 73
    6
 40
63.5
 49
25.4
 74
    0
 49
-12.7
 74
    0
 49
0
 74
    0
 49
-12.7
 74
    0
 49
0
 74
    0
 49
-12.7
 74
    0
  0
LTYPE
  5
42
330
5
100
AcDbSymbolTableRecord
100
AcDbLinetypeTableRecord
  2
BORDER
 70
    0
  3
Border __ __ . __ __ . __ __ . __ __ . __ __ .
 72
   65
 73
    6
 40
44.45
 49
12.7
 74
    0
 49
-6.35
 74
    0
 49
12.7
 74
    0
 49
-6.35
 74
    0
 49
0
 74
    0
 49
-6.35
 74
    0
  0
LTYPE
  5
43
330
5
100
AcDbSymbolTableRecord
100
AcDbLinetypeTableRecord
  2
BORDERTINY
 70
    0
  3
Border (.15x) __.__.__.__.__.__.__.__.__.__.__.
 72
   65
 73
    6
 40
6.6675
 49
1.905
 74
    0
 49
-0.9525
 74
    0
 49
1.905
 74
    0
 49
-0.9525
 74
    0
 49
0
 74
    0
 49
-0.9525
 74
    0
  0
LTYPE
  5
44
330
5
100
AcDbSymbolTableRecord
100
AcDbLinetypeTableRecord
  2
BORDER2
 70
    0
  3
Border (.5x) __.__.__.__.__.__.__.__.__.__.__.
 72
   65
 73
    6
 40
22.225
 49
6.35
 74
    0
 49
-3.175
 74
    0
 49
6.35
 74
    0
 49
-3.175
 74
    0
 49
0
 74
    0
 49
-3.175
 74
    0
  0
LTYPE
  5
45
330
5
100
AcDbSymbolTableRecord
100
AcDbLinetypeTableRecord
  2
BORDERX2
 70
    0
  3
Border (2x) ____  ____  .  ____  ____  .  ___
 72
   65
 73
    6
 40
88.89999999999999
 49
25.4
 74
    0
 49
-12.7
 74
    0
 49
25.4
 74
    0
 49
-12.7
 74
    0
 49
0
 74
    0
 49
-12.7
 74
    0
  0
LTYPE
  5
46
330
5
100
AcDbSymbolTableRecord
100
AcDbLinetypeTableRecord
  2
CENTER
 70
    0
  3
Center ____ _ ____ _ ____ _ ____ _ ____ _ ____
 72
   65
 73
    4
 40
50.8
 49
31.75
 74
    0
 49
-6.35
 74
    0
 49
6.35
 74
    0
 49
-6.35
 74
    0
  0
LTYPE
  5
47
330
5
100
AcDbSymbolTableRecord
100
AcDbLinetypeTableRecord
  2
CENTERTINY
 70
    0
  3
Center (.15x) ___ _ ___ _ ___ _ ___ _ ___ _ ___
 72
   65
 73
    4
 40
7.619999999999999
 49
4.7625
 74
    0
 49
-0.9525
 74
    0
 49
0.9525
 74
    0
 49
-0.9525
 74
    0
  0
LTYPE
  5
48
330
5
100
AcDbSymbolTableRecord
100
AcDbLinetypeTableRecord
  2
CENTER2
 70
    0
  3
Center (.5x) ___ _ ___ _ ___ _ ___ _ ___ _ ___
 72
   65
 73
    4
 40
28.575
 49
19.05
 74
    0
 49
-3.175
 74
    0
 49
3.175
 74
    0
 49
-3.175
 74
    0
  0
LTYPE
  5
49
330
5
100
AcDbSymbolTableRecord
100
AcDbLinetypeTableRecord
  2
CENTERX2
 70
    0
  3
Center (2x) ________  __  ________  __  _____
 72
   65
 73
    4
 40
101.6
 49
63.5
 74
    0
 49
-12.7
 74
    0
 49
12.7
 74
    0
 49
-12.7
 74
    0
  0
ENDTAB
  0
TABLE
  2
LAYER
  5
2
330
0
100
AcDbSymbolTable
 70
    1
  0
LAYER
  5
10
330
2
100
AcDbSymbolTableRecord
100
AcDbLayerTableRecord
  2
0
 70
    0
 62
    7
  6
CONTINUOUS
370
    0
390
F
  0
LAYER
  5
4A
330
2
100
AcDbSymbolTableRecord
100
AcDbLayerTableRecord
  2
ETCH
 70
    0
 62
    4
  6
CONTINUOUS
370
   20
390
F
  0
LAYER
  5
4B
330
2
100
AcDbSymbolTableRecord
100
AcDbLayerTableRecord
  2
EXT
 70
    0
 62
    3
  6
CONTINUOUS
370
    0
390
F
  0
LAYER
  5
4C
330
2
100
AcDbSymbolTableRecord
100
AcDbLayerTableRecord
  2
INT
 70
    0
 62
    1
  6
CONTINUOUS
370
    0
390
F
  0
ENDTAB
  0
TABLE
  2
STYLE
  5
3
330
0
100
AcDbSymbolTable
 70
    3
  0
STYLE
  5
4D
330
2
100
AcDbSymbolTableRecord
100
AcDbTextStyleTableRecord
  2
Standard
 70
    0
 40
0
 41
1
 50
0
 71
    0
 42
1
  3
txt
  4

  0
ENDTAB
  0
TABLE
  2
VIEW
  5
6
330
0
100
AcDbSymbolTable
 70
    0
  0
ENDTAB
  0
TABLE
  2
UCS
  5
7
330
0
100
AcDbSymbolTable
 70
    0
  0
ENDTAB
  0
TABLE
  2
APPID
  5
9
330
0
100
AcDbSymbolTable
 70
    1
  0
APPID
  5
12
330
9
100
AcDbSymbolTableRecord
100
AcDbRegAppTableRecord
  2
ACAD
 70
    0
  0
APPID
  5
4E
330
9
100
AcDbSymbolTableRecord
100
AcDbRegAppTableRecord
  2
LibreCad
 70
    0
  0
ENDTAB
  0
TABLE
  2
DIMSTYLE
  5
A
330
0
100
AcDbSymbolTable
 70
    1
100
AcDbDimStyleTable
 71
    1
  0
DIMSTYLE
105
4F
330
A
100
AcDbSymbolTableRecord
100
AcDbDimStyleTableRecord
  2
Standard
 70
    0
 40
2.5
 41
2.5
 42
0.625
 43
0.38
 44
1.25
 45
0
 46
0
 47
0
 48
0
 49
1
140
2.5
141
0.09
142
0
143
25.4
144
1
145
0
146
1
147
0.625
148
0
 71
    0
 72
    0
 73
    0
 74
    1
 75
    0
 76
    0
 77
    0
 78
    8
 79
    0
170
    0
171
    2
172
    0
173
    0
174
    0
175
    0
176
    0
177
    0
178
    0
179
    0
271
    2
272
    4
273
    2
274
    2
275
    0
276
    0
277
    2
278
   44
279
    0
280
    0
281
    0
282
    0
283
    1
284
    0
285
    0
286
    0
288
    0
289
    3
340
STANDARD
341

371
   -2
372
   -2
  0
ENDTAB
  0
TABLE
  2
BLOCK_RECORD
  5
1
330
0
100
AcDbSymbolTable
 70
    2
  0
BLOCK_RECORD
  5
1F
330
1
100
AcDbSymbolTableRecord
100
AcDbBlockTableRecord
  2
*Model_Space
 70
    0
280
    1
281
    0
  0
BLOCK_RECORD
  5
1E
330
1
100
AcDbSymbolTableRecord
100
AcDbBlockTableRecord
  2
*Paper_Space
 70
    0
280
    1
281
    0
  0
ENDTAB
  0
ENDSEC
  0
SECTION
  2
BLOCKS
  0
BLOCK
  5
20
330
1F
100
AcDbEntity
  8
0
100
AcDbBlockBegin
  2
*Model_Space
 70
    0
 10
0
 20
0
 30
0
  3
*Model_Space
  1

  0
ENDBLK
  5
21
330
1F
100
AcDbEntity
  8
0
100
AcDbBlockEnd
  0
BLOCK
  5
1C
330
1B
100
AcDbEntity
  8
0
100
AcDbBlockBegin
  2
*Paper_Space
 70
    0
 10
0
 20
0
 30
0
  3
*Paper_Space
  1

  0
ENDBLK
  5
1D
330
1F
100
AcDbEntity
  8
0
100
AcDbBlockEnd
  0
ENDSEC
  0
SECTION
  2
ENTITIES
  0
CIRCLE
  5
50
100
AcDbEntity
  8
INT
  6
ByLayer
 62
  256
370
   -1
100
AcDbCircle
 10
122.86
 20
173.33
 40
1.5
  0
CIRCLE
  5
51
100
AcDbEntity
  8
INT
  6
ByLayer
 62
  256
370
   -1
100
AcDbCircle
 10
351.46
 20
173.33
 40
1.5
  0
CIRCLE
  5
52
100
AcDbEntity
  8
INT
  6
ByLayer
 62
  256
370
   -1
100
AcDbCircle
 10
351.46
 20
20.93000000000001
 40
1.5
  0
CIRCLE
  5
53
100
AcDbEntity
  8
INT
  6
ByLayer
 62
  256
370
   -1
100
AcDbCircle
 10
122.86
 20
20.93000000000001
 40
1.5
  0
CIRCLE
  5
54
100
AcDbEntity
  8
INT
  6
ByLayer
 62
  256
370
   -1
100
AcDbCircle
 10
289.2299999999999
 20
203.18
 40
4.5
  0
CIRCLE
  5
55
100
AcDbEntity
  8
INT
  6
ByLayer
 62
  256
370
   -1
100
AcDbCircle
 10
122.86
 20
-47.16999999999999
 40
1.5
  0
CIRCLE
  5
56
100
AcDbEntity
  8
INT
  6
ByLayer
 62
  256
370
   -1
100
AcDbCircle
 10
351.46
 20
-47.16999999999999
 40
1.5
  0
CIRCLE
  5
57
100
AcDbEntity
  8
INT
  6
ByLayer
 62
  256
370
   -1
100
AcDbCircle
 10
351.46
 20
-199.57
 40
1.5
  0
CIRCLE
  5
58
100
AcDbEntity
  8
INT
  6
ByLayer
 62
  256
370
   -1
100
AcDbCircle
 10
122.86
 20
-199.57
 40
1.5
  0
LINE
  5
59
100
AcDbEntity
  8
EXT
  6
ByLayer
 62
  256
370
   -1
100
AcDbLine
 10
122.86
 20
-33.91999999999999
 11
351.46
 21
-33.91999999999999
  0
LINE
  5
5A
100
AcDbEntity
  8
EXT
  6
ByLayer
 62
  256
370
   -1
100
AcDbLine
 10
351.46
 20
-33.91999999999999
 11
360.7099999999999
 21
-33.91999999999999
  0
ARC
  5
5B
100
AcDbEntity
  8
EXT
  6
ByLayer
 62
  256
370
   -1
100
AcDbCircle
 10
360.7099999999999
 20
-36.91999999999999
 40
3
100
AcDbArc
 50
0
 51
90
  0
LINE
  5
5C
100
AcDbEntity
  8
EXT
  6
ByLayer
 62
  256
370
   -1
100
AcDbLine
 10
122.86
 20
-33.91999999999999
 11
113.61
 21
-33.91999999999999
  0
ARC
  5
5D
100
AcDbEntity
  8
EXT
  6
ByLayer
 62
  256
370
   -1
100
AcDbCircle
 10
113.61
 20
-36.91999999999999
 40
3
100
AcDbArc
 50
90
 51
180
  0
LINE
  5
5E
100
AcDbEntity
  8
EXT
  6
ByLayer
 62
  256
370
   -1
100
AcDbLine
 10
351.46
 20
-212.82
 11
122.86
 21
-212.82
  0
LINE
  5
5F
100
AcDbEntity
  8
EXT
  6
ByLayer
 62
  256
370
   -1
100
AcDbLine
 10
122.86
 20
-212.82
 11
113.61
 21
-212.82
  0
ARC
  5
60
100
AcDbEntity
  8
EXT
  6
ByLayer
 62
  256
370
   -1
100
AcDbCircle
 10
113.61
 20
-209.82
 40
3
100
AcDbArc
 50
180
 51
270
  0
LINE
  5
61
100
AcDbEntity
  8
EXT
  6
ByLayer
 62
  256
370
   -1
100
AcDbLine
 10
351.46
 20
-212.82
 11
360.7099999999999
 21
-212.82
  0
ARC
  5
62
100
AcDbEntity
  8
EXT
  6
ByLayer
 62
  256
370
   -1
100
AcDbCircle
 10
360.7099999999999
 20
-209.82
 40
3
100
AcDbArc
 50
270
 51
0
  0
LINE
  5
63
100
AcDbEntity
  8
EXT
  6
ByLayer
 62
  256
370
   -1
100
AcDbLine
 10
363.7099999999999
 20
-36.91999999999999
 11
363.7099999999999
 21
-209.82
  0
LINE
  5
64
100
AcDbEntity
  8
EXT
  6
ByLayer
 62
  256
370
   -1
100
AcDbLine
 10
110.61
 20
-36.91999999999999
 11
110.61
 21
-209.82
  0
LWPOLYLINE
  5
65
100
AcDbEntity
  8
INT
  6
ByLayer
 62
  256
370
   -1
100
AcDbPolyline
 90
    4
 70
    1
 43
0
 10
116.61
 20
197.33
 10
113.6100000000001
 20
197.33
 10
113.6100000000001
 20
217.43
 10
116.61
 20
217.43
  0
LWPOLYLINE
  5
66
100
AcDbEntity
  8
INT
  6
ByLayer
 62
  256
370
   -1
100
AcDbPolyline
 90
    8
 70
    1
 43
0
 10
159.1800000000001
 20
212.68
 42
0.414213562373095
 10
158.1800000000001
 20
213.68
 10
128.1799999999999
 20
213.68
 42
0.414213562373095
 10
127.1799999999999
 20
212.68
 10
127.1800000000001
 20
200.18
 42
0.414213562373095
 10
128.1800000000001
 20
199.18
 10
158.1799999999999
 20
199.18
 42
0.414213562373095
 10
159.1799999999999
 20
200.18
  0
LWPOLYLINE
  5
67
100
AcDbEntity
  8
INT
  6
ByLayer
 62
  256
370
   -1
100
AcDbPolyline
 90
    8
 70
    1
 43
0
 10
171.7339999999999
 20
213.68
 42
0.414213562373095
 10
170.7339999999999
 20
212.68
 10
170.7339999999999
 20
200.18
 42
0.414213562373095
 10
171.7339999999999
 20
199.18
 10
201.7339999999999
 20
199.18
 42
0.414213562373095
 10
202.7339999999999
 20
200.18
 10
202.7339999999999
 20
212.68
 42
0.414213562373095
 10
201.7339999999999
 20
213.68
  0
LWPOLYLINE
  5
68
100
AcDbEntity
  8
INT
  6
ByLayer
 62
  256
370
   -1
100
AcDbPolyline
 90
    4
 70
    1
 43
0
 10
271.4600000000002
 20
205.48
 10
206.4600000000002
 20
205.48
 10
206.4600000000002
 20
213.28
 10
271.4600000000002
 20
213.28
  0
LWPOLYLINE
  5
69
100
AcDbEntity
  8
INT
  6
ByLayer
 62
  256
370
   -1
100
AcDbPolyline
 90
    8
 70
    1
 43
0
 10
335.8
 20
206.58
 42
0.414213562373095
 10
335.3
 20
206.08
 10
335.3
 20
198.58
 42
0.414213562373095
 10
335.8
 20
198.08
 10
346.8
 20
198.08
 42
0.414213562373095
 10
347.3
 20
198.58
 10
347.3
 20
206.08
 42
0.414213562373095
 10
346.8
 20
206.58
  0
LWPOLYLINE
  5
6A
100
AcDbEntity
  8
INT
  6
ByLayer
 62
  256
370
   -1
100
AcDbPolyline
 90
    4
 70
    1
 43
0
 10
360.7099999999999
 20
197.33
 10
357.7099999999999
 20
197.33
 10
357.7099999999999
 20
217.43
 10
360.7099999999999
 20
217.43
  0
LWPOLYLINE
  5
6B
100
AcDbEntity
  8
INT
  6
ByLayer
 62
  256
370
   -1
100
AcDbPolyline
 90
    4
 70
    1
 43
0
 10
310.4849999999999
 20
180.58
 10
310.4849999999999
 20
183.58
 10
290.3849999999999
 20
183.58
 10
290.3849999999999
 20
180.58
  0
LWPOLYLINE
  5
6C
100
AcDbEntity
  8
INT
  6
ByLayer
 62
  256
370
   -1
100
AcDbPolyline
 90
    4
 70
    1
 43
0
 10
183.935
 20
180.58
 10
183.935
 20
183.58
 10
163.835
 20
183.58
 10
163.835
 20
180.58
  0
LWPOLYLINE
  5
6D
100
AcDbEntity
  8
INT
  6
ByLayer
 62
  256
370
   -1
100
AcDbPolyline
 90
    4
 70
    1
 43
0
 10
116.61
 20
87.07999999999998
 10
113.61
 20
87.07999999999998
 10
113.61
 20
107.18
 10
116.61
 20
107.18
  0
LWPOLYLINE
  5
6E
100
AcDbEntity
  8
INT
  6
ByLayer
 62
  256
370
   -1
100
AcDbPolyline
 90
    4
 70
    1
 43
0
 10
357.71
 20
87.08000000000001
 10
360.71
 20
87.08
 10
360.71
 20
107.18
 10
357.71
 20
107.18
  0
LWPOLYLINE
  5
6F
100
AcDbEntity
  8
INT
  6
ByLayer
 62
  256
370
   -1
100
AcDbPolyline
 90
    4
 70
    1
 43
0
 10
310.4849999999999
 20
10.68000000000001
 10
310.4849999999999
 20
13.68000000000001
 10
290.3849999999999
 20
13.68000000000001
 10
290.3849999999999
 20
10.68000000000001
  0
LWPOLYLINE
  5
70
100
AcDbEntity
  8
INT
  6
ByLayer
 62
  256
370
   -1
100
AcDbPolyline
 90
    4
 70
    1
 43
0
 10
183.935
 20
10.68000000000001
 10
183.935
 20
13.68000000000001
 10
163.835
 20
13.68000000000001
 10
163.835
 20
10.68000000000001
  0
LWPOLYLINE
  5
71
100
AcDbEntity
  8
INT
  6
ByLayer
 62
  256
370
   -1
100
AcDbPolyline
 90
    4
 70
    1
 43
0
 10
116.61
 20
-23.16999999999998
 10
113.61
 20
-23.16999999999998
 10
113.61
 20
-3.069999999999976
 10
116.61
 20
-3.069999999999977
  0
LWPOLYLINE
  5
72
100
AcDbEntity
  8
INT
  6
ByLayer
 62
  256
370
   -1
100
AcDbPolyline
 90
    4
 70
    1
 43
0
 10
360.71
 20
-23.16999999999998
 10
357.7099999999999
 20
-23.16999999999998
 10
357.7099999999999
 20
-3.069999999999976
 10
360.71
 20
-3.069999999999976
  0
LWPOLYLINE
  5
73
100
AcDbEntity
  8
INT
  6
ByLayer
 62
  256
370
   -1
100
AcDbPolyline
 90
   12
 70
    1
 43
0
 10
346.46
 20
-196.042
 10
346.4599999999999
 20
-50.69800000000001
 42
0.414213562373095
 10
343.4599999999999
 20
-47.69800000000001
 10
130.86
 20
-47.69800000000001
 42
0.4142135623730938
 10
127.86
 20
-50.69800000000001
 10
127.86
 20
-196.042
 42
0.414213562373095
 10
130.86
 20
-199.042
 10
193.9753751944568
 20
-199.0419999999992
 42
-0.1854501964779888
 10
198.6615249999999
 20
-197.242
 10
275.6584709316569
 20
-197.2420000000012
 42
-0.1854503467731123
 10
280.3446248055458
 20
-199.0420000000001
 10
343.46
 20
-199.042
 42
0.414213562373095
  0
LWPOLYLINE
  5
74
100
AcDbEntity
  8
EXT
  6
ByLayer
 62
  256
370
   -1
100
AcDbPolyline
 90
   20
 70
    1
 43
0
 10
310.4349999999999
 20
225.18
 10
310.4349999999999
 20
222.18
 10
363.7099999999999
 20
222.18
 10
363.7099999999999
 20
192.58
 10
310.4349999999999
 20
192.58
 10
310.4349999999999
 20
189.58
 10
290.4349999999999
 20
189.58
 10
290.4349999999999
 20
192.58
 10
183.885
 20
192.58
 10
183.885
 20
189.58
 10
163.885
 20
189.58
 10
163.885
 20
192.58
 10
110.61
 20
192.58
 10
110.61
 20
222.18
 10
163.885
 20
222.18
 10
163.885
 20
225.18
 10
183.885
 20
225.18
 10
183.885
 20
222.18
 10
290.4349999999999
 20
222.18
 10
290.4349999999999
 20
225.18
  0
LWPOLYLINE
  5
75
100
AcDbEntity
  8
EXT
  6
ByLayer
 62
  256
370
   -1
100
AcDbPolyline
 90
   12
 70
    1
 43
0
 10
351.46
 20
7.680000000000007
 10
122.86
 20
7.68000000000001
 10
113.61
 20
7.68000000000001
 42
-0.414213562373095
 10
110.61
 20
10.68000000000001
 10
110.61
 20
183.58
 42
-0.414213562373095
 10
113.61
 20
186.58
 10
122.86
 20
186.58
 10
351.46
 20
186.58
 10
360.7099999999999
 20
186.58
 42
-0.414213562373095
 10
363.7099999999999
 20
183.58
 10
363.7099999999999
 20
10.68000000000001
 42
-0.414213562373095
 10
360.7099999999999
 20
7.68000000000001
  0
LWPOLYLINE
  5
76
100
AcDbEntity
  8
EXT
  6
ByLayer
 62
  256
370
   -1
100
AcDbPolyline
 90
   20
 70
    1
 43
0
 10
163.885
 20
-30.91999999999999
 10
163.885
 20
-27.91999999999999
 10
110.61
 20
-27.91999999999999
 10
110.61
 20
1.680000000000007
 10
163.885
 20
1.680000000000007
 10
163.885
 20
4.680000000000007
 10
183.885
 20
4.680000000000007
 10
183.885
 20
1.679999999999978
 10
290.4349999999999
 20
1.680000000000007
 10
290.4349999999999
 20
4.680000000000007
 10
310.4349999999999
 20
4.680000000000007
 10
310.4349999999999
 20
1.680000000000007
 10
363.7099999999999
 20
1.680000000000007
 10
363.7099999999999
 20
-27.91999999999999
 10
310.4349999999999
 20
-27.91999999999999
 10
310.4349999999999
 20
-30.91999999999999
 10
290.4349999999999
 20
-30.91999999999999
 10
290.4349999999999
 20
-27.91999999999999
 10
183.885
 20
-27.91999999999999
 10
183.885
 20
-30.91999999999999
  0
LWPOLYLINE
  5
77
100
AcDbEntity
  8
EXT
  6
ByLayer
 62
  256
370
   -1
100
AcDbPolyline
 90
   20
 70
    1
 43
0
 10
298.7600000000001
 20
-81.29799999999997
 10
298.7600000000001
 20
-76.49800000000002
 10
301.7600000000001
 20
-76.49800000000002
 10
301.7600000000001
 20
-56.49799999999999
 10
298.7600000000001
 20
-56.49799999999999
 10
298.7600000000001
 20
-51.69799999999989
 10
225.3100000000001
 20
-51.69799999999989
 10
225.3100000000001
 20
-48.69799999999989
 10
205.31
 20
-48.69799999999989
 10
205.31
 20
-51.69799999999989
 10
131.86
 20
-51.69800000000001
 10
131.86
 20
-56.49799999999999
 10
128.86
 20
-56.49799999999999
 10
128.86
 20
-76.49800000000002
 10
131.86
 20
-76.49800000000002
 10
131.86
 20
-81.29799999999997
 10
205.31
 20
-81.29799999999997
 10
205.31
 20
-84.29799999999997
 10
225.3100000000001
 20
-84.29799999999997
 10
225.3100000000001
 20
-81.29799999999997
  0
LWPOLYLINE
  5
78
100
AcDbEntity
  8
EXT
  6
ByLayer
 62
  256
370
   -1
100
AcDbPolyline
 90
   20
 70
    1
 43
0
 10
298.7600000000001
 20
-113.098
 10
301.7600000000001
 20
-113.098
 10
301.7600000000001
 20
-93.09799999999998
 10
298.7600000000001
 20
-93.09799999999998
 10
298.7600000000001
 20
-88.29799999999997
 10
225.3100000000001
 20
-88.29799999999997
 10
225.3100000000001
 20
-85.29799999999997
 10
205.31
 20
-85.29799999999997
 10
205.31
 20
-88.29799999999997
 10
131.86
 20
-88.29800000000009
 10
131.86
 20
-93.09799999999998
 10
128.86
 20
-93.09799999999998
 10
128.86
 20
-113.098
 10
131.86
 20
-113.098
 10
131.86
 20
-117.8980000000001
 10
205.31
 20
-117.898
 10
205.31
 20
-120.898
 10
225.3100000000001
 20
-120.898
 10
225.3100000000001
 20
-117.898
 10
298.7600000000001
 20
-117.898
  0
LWPOLYLINE
  5
79
100
AcDbEntity
  8
ETCH
  6
ByLayer
 62
  256
370
   -1
100
AcDbPolyline
 90
    4
 70
    0
 43
0
 10
137.5013936540719
 20
218.5302457655118
 10
137.5013936540719
 20
216.3873890988451
 42
-0.4150000000000126
 10
136.8585369874052
 20
215.7445324321785
 10
136.6442503207385
 20
215.7445324321785
  0
LWPOLYLINE
  5
7A
100
AcDbEntity
  8
ETCH
  6
ByLayer
 62
  256
370
   -1
100
AcDbPolyline
 90
    4
 70
    1
 43
0
 10
139.4299642323148
 20
216.3231024321784
 10
139.4299642323148
 20
217.9516757655118
 42
0.9999999999999999
 10
138.1442508989815
 20
217.9516757655118
 10
138.1442508989815
 20
216.3231024321784
 42
0.9999999999999999
  0
LWPOLYLINE
  5
7B
100
AcDbEntity
  8
ETCH
  6
ByLayer
 62
  256
370
   -1
100
AcDbPolyline
 90
    3
 70
    0
 43
0
 10
141.5728208989815
 20
218.5302490988451
 10
140.8228208989815
 20
217.1375524321785
 10
140.8228208989815
 20
215.7445324321785
  0
LWPOLYLINE
  5
7C
100
AcDbEntity
  8
ETCH
  6
ByLayer
 62
  256
370
   -1
100
AcDbPolyline
 90
    2
 70
    0
 43
0
 10
140.0728208989815
 20
218.5302457655118
 10
140.8228208989815
 20
217.1375524321785
  0
LWPOLYLINE
  5
7D
100
AcDbEntity
  8
ETCH
  6
ByLayer
 62
  256
370
   -1
100
AcDbPolyline
 90
    6
 70
    0
 43
0
 10
143.4371708989815
 20
218.4231024321784
 42
0.2159599999999979
 10
142.5221375656481
 20
218.5480090988451
 42
0.5350600000000353
 10
142.3122142323148
 20
217.8657257655118
 10
143.3827908989814
 20
216.5529057655118
 42
-0.5689299999999758
 10
143.0715142323148
 20
215.7012490988451
 42
-0.181919999999998
 10
142.2156775656481
 20
215.8517157655118
 42
-0.181919999999998
  0
LWPOLYLINE
  5
7E
100
AcDbEntity
  8
ETCH
  6
ByLayer
 62
  256
370
   -1
100
AcDbPolyline
 90
    2
 70
    0
 43
0
 10
144.1443263459281
 20
218.5302457655118
 10
145.4300396792615
 20
218.5302457655118
  0
LWPOLYLINE
  5
7F
100
AcDbEntity
  8
ETCH
  6
ByLayer
 62
  256
370
   -1
100
AcDbPolyline
 90
    2
 70
    0
 43
0
 10
144.7871830125948
 20
218.5302457655118
 10
144.7871830125948
 20
215.7445324321785
  0
LWPOLYLINE
  5
80
100
AcDbEntity
  8
ETCH
  6
ByLayer
 62
  256
370
   -1
100
AcDbPolyline
 90
    2
 70
    0
 43
0
 10
146.0728963459281
 20
218.5302457655118
 10
146.0728963459281
 20
215.7445324321785
  0
LWPOLYLINE
  5
81
100
AcDbEntity
  8
ETCH
  6
ByLayer
 62
  256
370
   -1
100
AcDbPolyline
 90
    6
 70
    0
 43
0
 10
147.7871796792615
 20
218.5302457655118
 10
147.3586096792615
 20
218.5302457655118
 42
0.4150100000000014
 10
146.7157530125948
 20
217.8873890988451
 10
146.7157530125948
 20
216.3873890988451
 42
0.4166700000000121
 10
147.3586096792615
 20
215.7445324321785
 10
147.7871796792615
 20
215.7445324321785
  0
LWPOLYLINE
  5
82
100
AcDbEntity
  8
ETCH
  6
ByLayer
 62
  256
370
   -1
100
AcDbPolyline
 90
    2
 70
    0
 43
0
 10
148.4300363459281
 20
218.5302457655118
 10
148.4300363459281
 20
215.7445324321785
  0
LWPOLYLINE
  5
83
100
AcDbEntity
  8
ETCH
  6
ByLayer
 62
  256
370
   -1
100
AcDbPolyline
 90
    2
 70
    0
 43
0
 10
149.7157496792614
 20
218.5302457655118
 10
148.4300363459281
 20
216.8155690988451
  0
LWPOLYLINE
  5
84
100
AcDbEntity
  8
ETCH
  6
ByLayer
 62
  256
370
   -1
100
AcDbPolyline
 90
    2
 70
    0
 43
0
 10
148.8478263459281
 20
217.3727490988451
 10
149.7157496792614
 20
215.7445324321785
  0
LWPOLYLINE
  5
85
100
AcDbEntity
  8
ETCH
  6
ByLayer
 62
  256
370
   -1
100
AcDbPolyline
 90
    3
 70
    0
 43
0
 10
182.8773947034861
 20
218.53
 10
183.6274247034862
 20
215.7418733333333
 10
184.3763247034861
 20
218.5289266666667
  0
LWPOLYLINE
  5
86
100
AcDbEntity
  8
ETCH
  6
ByLayer
 62
  256
370
   -1
100
AcDbPolyline
 90
    2
 70
    0
 43
0
 10
185.0191813701528
 20
218.53
 10
185.0191813701528
 20
215.7442866666667
  0
LWPOLYLINE
  5
87
100
AcDbEntity
  8
ETCH
  6
ByLayer
 62
  256
370
   -1
100
AcDbPolyline
 90
    6
 70
    1
 43
0
 10
186.9477513701528
 20
216.3871433333333
 42
-0.4150100000000017
 10
186.3048947034862
 20
215.7442866666667
 10
185.6620380368195
 20
215.7442866666667
 10
185.6620380368195
 20
218.53
 10
186.3048947034862
 20
218.53
 42
-0.4133399999999929
 10
186.9477513701528
 20
217.8871433333333
  0
LWPOLYLINE
  5
88
100
AcDbEntity
  8
ETCH
  6
ByLayer
 62
  256
370
   -1
100
AcDbPolyline
 90
    2
 70
    0
 43
0
 10
187.590608629847
 20
217.2442866666667
 10
188.2334652965136
 20
217.2442866666667
  0
LWPOLYLINE
  5
89
100
AcDbEntity
  8
ETCH
  6
ByLayer
 62
  256
370
   -1
100
AcDbPolyline
 90
    4
 70
    0
 43
0
 10
188.6620352965136
 20
218.53
 10
187.590608629847
 20
218.53
 10
187.590608629847
 20
215.7442866666667
 10
188.6620352965136
 20
215.7442866666667
  0
LWPOLYLINE
  5
8A
100
AcDbEntity
  8
ETCH
  6
ByLayer
 62
  256
370
   -1
100
AcDbPolyline
 90
    4
 70
    1
 43
0
 10
190.5906052965136
 20
216.3228566666667
 10
190.5906052965136
 20
217.95143
 42
0.9999999999999999
 10
189.3048919631803
 20
217.95143
 10
189.3048919631803
 20
216.3228566666667
 42
0.9999999999999999
  0
LWPOLYLINE
  5
8B
100
AcDbEntity
  8
ETCH
  6
ByLayer
 62
  256
370
   -1
100
AcDbPolyline
 90
    6
 70
    0
 43
0
 10
224.0028102765221
 20
218.4231024321784
 42
0.2159599999999979
 10
223.0877769431887
 20
218.5480090988451
 42
0.5350600000000353
 10
222.8778536098554
 20
217.8657257655118
 10
223.948430276522
 20
216.5529057655118
 42
-0.5689299999999758
 10
223.6371536098554
 20
215.7012490988451
 42
-0.181919999999998
 10
222.7813169431887
 20
215.8517157655118
 42
-0.181919999999998
  0
LWPOLYLINE
  5
8C
100
AcDbEntity
  8
ETCH
  6
ByLayer
 62
  256
370
   -1
100
AcDbPolyline
 90
    5
 70
    0
 43
0
 10
224.7099657234687
 20
215.7445324321785
 10
224.7099657234687
 20
218.5302457655118
 10
225.2456790568021
 20
218.5302457655118
 42
-0.9999999999999999
 10
225.2456790568021
 20
217.0302457655118
 10
224.7099657234687
 20
217.0302457655118
  0
LWPOLYLINE
  5
8D
100
AcDbEntity
  8
ETCH
  6
ByLayer
 62
  256
370
   -1
100
AcDbPolyline
 90
    2
 70
    0
 43
0
 10
226.6385357234687
 20
218.5302457655118
 10
226.6385357234687
 20
215.7445324321785
  0
LWPOLYLINE
  5
8E
100
AcDbEntity
  8
ETCH
  6
ByLayer
 62
  256
370
   -1
100
AcDbPolyline
 90
    2
 70
    0
 43
0
 10
228.5671090568021
 20
217.2445324321785
 10
229.2099657234687
 20
217.2445324321785
  0
LWPOLYLINE
  5
8F
100
AcDbEntity
  8
ETCH
  6
ByLayer
 62
  256
370
   -1
100
AcDbPolyline
 90
    4
 70
    0
 43
0
 10
229.6385357234687
 20
218.5302457655118
 10
228.5671090568021
 20
218.5302457655118
 10
228.5671090568021
 20
215.7445324321785
 10
229.6385357234687
 20
215.7445324321785
  0
LWPOLYLINE
  5
90
100
AcDbEntity
  8
ETCH
  6
ByLayer
 62
  256
370
   -1
100
AcDbPolyline
 90
    2
 70
    0
 43
0
 10
230.2813923901354
 20
218.5302457655118
 10
231.7813923901354
 20
215.7445324321785
  0
LWPOLYLINE
  5
91
100
AcDbEntity
  8
ETCH
  6
ByLayer
 62
  256
370
   -1
100
AcDbPolyline
 90
    2
 70
    0
 43
0
 10
231.7813923901354
 20
218.5302457655118
 10
230.2813923901354
 20
215.7445324321785
  0
LWPOLYLINE
  5
92
100
AcDbEntity
  8
ETCH
  6
ByLayer
 62
  256
370
   -1
100
AcDbPolyline
 90
    5
 70
    0
 43
0
 10
232.4242490568021
 20
215.7445324321785
 10
232.4242490568021
 20
218.5302457655118
 10
232.9599623901354
 20
218.5302457655118
 42
-0.9999999999999999
 10
232.9599623901354
 20
217.0302457655118
 10
232.4242490568021
 20
217.0302457655118
  0
LWPOLYLINE
  5
93
100
AcDbEntity
  8
ETCH
  6
ByLayer
 62
  256
370
   -1
100
AcDbPolyline
 90
    2
 70
    0
 43
0
 10
234.5836557234688
 20
216.6016757655118
 10
235.6222390568021
 20
216.6016757655118
  0
LWPOLYLINE
  5
94
100
AcDbEntity
  8
ETCH
  6
ByLayer
 62
  256
370
   -1
100
AcDbPolyline
 90
    3
 70
    0
 43
0
 10
234.3528190568021
 20
215.7445324321785
 10
235.1032390568021
 20
218.5309857655118
 10
235.8528190568021
 20
215.7445324321785
  0
LWPOLYLINE
  5
95
100
AcDbEntity
  8
ETCH
  6
ByLayer
 62
  256
370
   -1
100
AcDbPolyline
 90
    4
 70
    0
 43
0
 10
236.4956757234688
 20
215.7445324321785
 10
236.4956757234688
 20
218.5287590988451
 10
237.7813890568021
 20
215.7460190988451
 10
237.7813890568021
 20
218.5302457655118
  0
LWPOLYLINE
  5
96
100
AcDbEntity
  8
ETCH
  6
ByLayer
 62
  256
370
   -1
100
AcDbPolyline
 90
    6
 70
    0
 43
0
 10
239.6457390568021
 20
218.4231024321784
 42
0.2159599999999987
 10
238.7307057234687
 20
218.5480090988451
 42
0.5350600000000018
 10
238.5207823901354
 20
217.8657257655118
 10
239.5913590568021
 20
216.5529057655118
 42
-0.5689300000000049
 10
239.2800823901354
 20
215.7012490988451
 42
-0.181919999999998
 10
238.4242457234687
 20
215.8517157655118
 42
-0.181919999999998
  0
LWPOLYLINE
  5
97
100
AcDbEntity
  8
ETCH
  6
ByLayer
 62
  256
370
   -1
100
AcDbPolyline
 90
    2
 70
    0
 43
0
 10
240.3528945037488
 20
218.5302457655118
 10
240.3528945037488
 20
215.7445324321785
  0
LWPOLYLINE
  5
98
100
AcDbEntity
  8
ETCH
  6
ByLayer
 62
  256
370
   -1
100
AcDbPolyline
 90
    4
 70
    1
 43
0
 10
242.2814645037488
 20
216.3231024321784
 10
242.2814645037488
 20
217.9516757655118
 42
0.9999999999999999
 10
240.9957511704154
 20
217.9516757655118
 10
240.9957511704154
 20
216.3231024321784
 42
0.9999999999999999
  0
LWPOLYLINE
  5
99
100
AcDbEntity
  8
ETCH
  6
ByLayer
 62
  256
370
   -1
100
AcDbPolyline
 90
    4
 70
    0
 43
0
 10
242.9243211704155
 20
215.7445324321785
 10
242.9243211704155
 20
218.5287590988451
 10
244.2100345037488
 20
215.7460190988451
 10
244.2100345037488
 20
218.5302457655118
  0
LWPOLYLINE
  5
9A
100
AcDbEntity
  8
ETCH
  6
ByLayer
 62
  256
370
   -1
100
AcDbPolyline
 90
    5
 70
    0
 43
0
 10
246.1386078370821
 20
215.7445324321785
 10
246.1386078370821
 20
218.5302457655118
 10
246.6743211704154
 20
218.5302457655118
 42
-0.9999999999999999
 10
246.6743211704154
 20
217.0302457655118
 10
246.1386078370821
 20
217.0302457655118
  0
LWPOLYLINE
  5
9B
100
AcDbEntity
  8
ETCH
  6
ByLayer
 62
  256
370
   -1
100
AcDbPolyline
 90
    4
 70
    1
 43
0
 10
249.3528911704154
 20
216.3231024321784
 10
249.3528911704154
 20
217.9516757655118
 42
0.9999999999999999
 10
248.0671778370821
 20
217.9516757655118
 10
248.0671778370821
 20
216.3231024321784
 42
0.9999999999999999
  0
LWPOLYLINE
  5
9C
100
AcDbEntity
  8
ETCH
  6
ByLayer
 62
  256
370
   -1
100
AcDbPolyline
 90
    2
 70
    0
 43
0
 10
250.5306878370821
 20
217.0302457655118
 10
251.2814611704154
 20
215.7445324321785
  0
LWPOLYLINE
  5
9D
100
AcDbEntity
  8
ETCH
  6
ByLayer
 62
  256
370
   -1
100
AcDbPolyline
 90
    5
 70
    0
 43
0
 10
249.9957478370821
 20
215.7445324321785
 10
249.9957478370821
 20
218.5302457655118
 10
250.5314611704154
 20
218.5302457655118
 42
-0.9999999999999999
 10
250.5314611704154
 20
217.0302457655118
 10
249.9957478370821
 20
217.0302457655118
  0
LWPOLYLINE
  5
9E
100
AcDbEntity
  8
ETCH
  6
ByLayer
 62
  256
370
   -1
100
AcDbPolyline
 90
    2
 70
    0
 43
0
 10
251.9243178370821
 20
218.5302457655118
 10
253.2100311704154
 20
218.5302457655118
  0
LWPOLYLINE
  5
9F
100
AcDbEntity
  8
ETCH
  6
ByLayer
 62
  256
370
   -1
100
AcDbPolyline
 90
    2
 70
    0
 43
0
 10
252.5671745037488
 20
218.5302457655118
 10
252.5671745037488
 20
215.7445324321785
  0
LWPOLYLINE
  5
A0
100
AcDbEntity
  8
ETCH
  6
ByLayer
 62
  256
370
   -1
100
AcDbPolyline
 90
    6
 70
    0
 43
0
 10
255.0743811704154
 20
218.4231024321784
 42
0.2159599999999987
 10
254.1593478370821
 20
218.5480090988451
 42
0.5350600000000018
 10
253.9494245037488
 20
217.8657257655118
 10
255.0200011704154
 20
216.5529057655118
 42
-0.5689300000000049
 10
254.7087245037488
 20
215.7012490988451
 42
-0.181919999999998
 10
253.8528878370821
 20
215.8517157655118
 42
-0.181919999999998
  0
LWPOLYLINE
  5
A1
100
AcDbEntity
  8
ETCH
  6
ByLayer
 62
  256
370
   -1
100
AcDbPolyline
 90
    2
 70
    0
 43
0
 10
285.4965530368195
 20
212.60143
 10
286.5351363701528
 20
212.60143
  0
LWPOLYLINE
  5
A2
100
AcDbEntity
  8
ETCH
  6
ByLayer
 62
  256
370
   -1
100
AcDbPolyline
 90
    3
 70
    0
 43
0
 10
285.2657163701528
 20
211.7442866666667
 10
286.0161363701528
 20
214.53074
 10
286.7657163701528
 20
211.7442866666667
  0
LWPOLYLINE
  5
A3
100
AcDbEntity
  8
ETCH
  6
ByLayer
 62
  256
370
   -1
100
AcDbPolyline
 90
    4
 70
    0
 43
0
 10
287.4085730368195
 20
214.53
 10
287.4085730368195
 20
212.3228566666667
 42
0.9999999999999999
 10
288.6942863701528
 20
212.3228566666667
 10
288.6942863701528
 20
214.53
  0
LWPOLYLINE
  5
A4
100
AcDbEntity
  8
ETCH
  6
ByLayer
 62
  256
370
   -1
100
AcDbPolyline
 90
    6
 70
    1
 43
0
 10
290.6228563701529
 20
212.3871433333333
 42
-0.4150100000000017
 10
289.9799997034862
 20
211.7442866666667
 10
289.3371430368195
 20
211.7442866666667
 10
289.3371430368195
 20
214.53
 10
289.9799997034862
 20
214.53
 42
-0.413340000000006
 10
290.6228563701528
 20
213.8871433333333
  0
LWPOLYLINE
  5
A5
100
AcDbEntity
  8
ETCH
  6
ByLayer
 62
  256
370
   -1
100
AcDbPolyline
 90
    2
 70
    0
 43
0
 10
291.265713629847
 20
214.53
 10
291.265713629847
 20
211.7442866666667
  0
LWPOLYLINE
  5
A6
100
AcDbEntity
  8
ETCH
  6
ByLayer
 62
  256
370
   -1
100
AcDbPolyline
 90
    4
 70
    1
 43
0
 10
293.194283629847
 20
212.3228566666667
 10
293.194283629847
 20
213.95143
 42
0.9999999999999999
 10
291.9085702965136
 20
213.95143
 10
291.9085702965136
 20
212.3228566666667
 42
0.9999999999999999
  0
LWPOLYLINE
  5
A7
100
AcDbEntity
  8
ETCH
  6
ByLayer
 62
  256
370
   -1
100
AcDbPolyline
 90
    5
 70
    0
 43
0
 10
336.3714316666667
 20
211.7442866666667
 10
336.3714316666667
 20
214.53
 10
336.907145
 20
214.53
 42
-0.9999999999999999
 10
336.907145
 20
213.03
 10
336.3714316666667
 20
213.03
  0
LWPOLYLINE
  5
A8
100
AcDbEntity
  8
ETCH
  6
ByLayer
 62
  256
370
   -1
100
AcDbPolyline
 90
    4
 70
    1
 43
0
 10
339.585715
 20
212.3228566666667
 10
339.585715
 20
213.95143
 42
0.9999999999999999
 10
338.3000016666667
 20
213.95143
 10
338.3000016666667
 20
212.3228566666667
 42
0.9999999999999999
  0
LWPOLYLINE
  5
A9
100
AcDbEntity
  8
ETCH
  6
ByLayer
 62
  256
370
   -1
100
AcDbPolyline
 90
    5
 70
    0
 43
0
 10
340.2285716666667
 20
214.53
 10
340.7645283333333
 20
211.7439466666667
 10
341.407535
 20
213.67296
 10
342.0497216666666
 20
211.7437766666667
 10
342.585715
 20
214.53
  0
LWPOLYLINE
  5
AA
100
AcDbEntity
  8
ETCH
  6
ByLayer
 62
  256
370
   -1
100
AcDbPolyline
 90
    2
 70
    0
 43
0
 10
343.2285716666667
 20
213.2442866666667
 10
343.8714283333333
 20
213.2442866666667
  0
LWPOLYLINE
  5
AB
100
AcDbEntity
  8
ETCH
  6
ByLayer
 62
  256
370
   -1
100
AcDbPolyline
 90
    4
 70
    0
 43
0
 10
344.2999983333333
 20
214.53
 10
343.2285716666667
 20
214.53
 10
343.2285716666667
 20
211.7442866666667
 10
344.2999983333333
 20
211.7442866666667
  0
LWPOLYLINE
  5
AC
100
AcDbEntity
  8
ETCH
  6
ByLayer
 62
  256
370
   -1
100
AcDbPolyline
 90
    2
 70
    0
 43
0
 10
345.477795
 20
213.03
 10
346.2285683333333
 20
211.7442866666667
  0
LWPOLYLINE
  5
AD
100
AcDbEntity
  8
ETCH
  6
ByLayer
 62
  256
370
   -1
100
AcDbPolyline
 90
    5
 70
    0
 43
0
 10
344.942855
 20
211.7442866666667
 10
344.942855
 20
214.53
 10
345.4785683333333
 20
214.53
 42
-0.9999999999999999
 10
345.4785683333333
 20
213.03
 10
344.942855
 20
213.03
  0
ENDSEC
  0
SECTION
  2
OBJECTS
  0
DICTIONARY
  5
C
330
0
100
AcDbDictionary
281
    1
  3
ACAD_GROUP
350
D
  0
DICTIONARY
  5
D
330
C
100
AcDbDictionary
281
    1
  0
PLOTSETTINGS
  5
AE
100
AcDbPlotSettings
  6
1x1
 40
0
 41
0
 42
0
 43
0
  0
ENDSEC
  0
EOF
